# xmcd
#
# Track frame offsets:
#	150
#	22415
#	36602
#	59962
#	74317
#	92145
#	111205
#	139887
#	158755
#	175537
#
# Disc length: 2571 seconds
#
# Revision: 0
# Processed by: cddbd v1.5.1PL0 Copyright (c) Steve Scherf et al.
# Submitted via: dBpowerAMP V4.0
#
DISCID=970a090a
DTITLE=Haroldinho Mattos - same
DYEAR=1996
DGENRE=blues
TTITLE0=Tá esquentando
TTITLE1=Moscow Blues
TTITLE2=De repente
TTITLE3=Olhando os campos
TTITLE4=A vida é uma sorte
TTITLE5=Cada poro seu
TTITLE6=Acordando agora
TTITLE7=Feita de luz
TTITLE8=Supercama
TTITLE9=Névoa púrpura (Purple Haze)
EXTD=
EXTT0=
EXTT1=
EXTT2=
EXTT3=
EXTT4=
EXTT5=
EXTT6=
EXTT7=
EXTT8=
EXTT9=
PLAYORDER=
